#tb 0: 1/25
#media_type 0: video
#codec_id 0: rawvideo
#dimensions 0: 352x288
#sar 0: 1/1
0,          1,          1,        1,   152064, 0xf377a700
0,          2,          2,        1,   152064, 0xc8f49e27
0,          3,          3,        1,   152064, 0xd253339b
0,          4,          4,        1,   152064, 0x7c2da279
0,          5,          5,        1,   152064, 0x1974ed11
